<?xml version="1.0" standalone="no"?>
<!DOCTYPE svg PUBLIC "-//W3C//DTD SVG 20010904//EN"
 "http://www.w3.org/TR/2001/REC-SVG-20010904/DTD/svg10.dtd">
<svg version="1.0" xmlns="http://www.w3.org/2000/svg"
 width="512.000000pt" height="512.000000pt" viewBox="0 0 512.000000 512.000000"
 preserveAspectRatio="xMidYMid meet">
<metadata>
Created by potrace 1.14, written by Peter Selinger 2001-2017
</metadata>
<g transform="translate(0.000000,512.000000) scale(0.100000,-0.100000)"
fill="#000000" stroke="none">
<path d="M0 2560 l0 -2560 2560 0 2560 0 0 2560 0 2560 -2560 0 -2560 0 0
-2560z m2091 1698 c0 -40 1 -343 0 -354 -1 -7 -26 -12 -63 -13 -68 -2 -125
-14 -174 -36 -76 -35 -98 -104 -81 -245 8 -64 27 -235 32 -300 3 -30 7 -72 10
-93 13 -83 12 -202 -1 -263 -41 -197 -164 -300 -439 -368 l-90 -23 45 -7 c25
-4 81 -17 125 -30 213 -62 328 -171 360 -341 15 -79 13 -160 -10 -375 -2 -14
-6 -56 -10 -95 -3 -38 -8 -80 -10 -93 -7 -41 -18 -176 -18 -213 0 -19 8 -50
17 -67 18 -35 78 -80 117 -87 43 -9 123 -18 157 -18 23 1 32 -4 33 -16 1 -23
1 -288 0 -334 l-1 -39 -125 6 c-283 12 -495 76 -591 178 -92 97 -125 204 -119
388 2 69 6 141 9 160 3 19 7 60 10 90 15 145 18 177 22 200 3 14 7 73 9 131 6
123 -7 167 -64 225 -60 61 -133 87 -306 108 -22 3 -55 5 -72 6 l-33 0 0 225 0
225 53 1 c217 4 353 65 408 184 16 34 18 57 14 150 -3 61 -7 124 -9 140 -3 17
-8 59 -11 95 -3 36 -8 72 -10 80 -24 97 -26 413 -2 491 60 200 246 309 572
335 44 4 81 7 82 8 1 1 39 3 83 4 77 2 80 2 81 -20z m1224 7 c11 -3 36 -7 55
-9 214 -30 387 -130 448 -259 51 -109 62 -268 33 -487 -5 -41 -13 -109 -16
-150 -4 -41 -9 -88 -11 -105 -2 -16 -7 -75 -11 -131 -5 -96 -4 -103 21 -154
15 -29 39 -64 54 -77 73 -65 190 -99 350 -102 l52 -1 0 -225 0 -225 -37 -1
c-111 -2 -263 -35 -317 -68 -51 -32 -87 -71 -107 -115 -16 -34 -18 -59 -14
-151 2 -60 6 -123 9 -140 2 -16 7 -59 11 -95 4 -36 8 -76 10 -90 17 -145 20
-192 20 -300 -1 -172 -35 -268 -127 -356 -112 -108 -277 -157 -580 -170 -120
-5 -128 -5 -129 13 0 10 -1 97 -1 193 l0 175 53 1 c77 3 166 24 202 48 71 47
80 104 52 331 -2 17 -6 66 -10 110 -4 44 -8 87 -10 95 -7 38 -17 152 -19 224
-6 187 57 316 197 404 62 39 216 95 297 108 47 8 47 11 0 19 -167 28 -333 103
-399 180 -82 97 -111 248 -87 460 3 28 8 77 11 110 3 33 7 67 10 75 2 8 6 49
10 90 3 41 8 89 10 105 10 73 6 164 -8 191 -32 61 -126 102 -244 105 l-63 2
-1 41 c-1 49 0 315 0 335 1 11 25 12 134 6 72 -3 141 -8 152 -10z"/>
</g>
</svg>
